<svg width="50" height="38" viewBox="0 0 50 38" fill="none" xmlns="http://www.w3.org/2000/svg">
<path d="M28.712 4.00126C35.8761 3.93874 42.8631 6.20929 48.6194 10.4655C48.7327 10.5492 48.7893 10.5911 48.7983 10.653C48.8073 10.7149 48.7646 10.7715 48.6794 10.8846L29.2353 36.6878C29.1272 36.8312 29.0731 36.903 28.9992 36.9036C28.9252 36.9042 28.8699 36.8335 28.7593 36.6919L8.86788 11.232C8.78065 11.1204 8.73704 11.0646 8.74494 11.0025C8.75284 10.9405 8.80874 10.8976 8.92054 10.8119C14.6017 6.45592 21.548 4.06377 28.712 4.00126Z" stroke="white" style="stroke:white;stroke-opacity:1;" stroke-width="2" stroke-linecap="round"/>
<path d="M28.7644 10.001C34.6077 9.95004 40.307 11.7961 45.0083 15.2576C45.1216 15.341 45.1783 15.3827 45.1874 15.4447C45.1964 15.5066 45.1538 15.5632 45.0685 15.6764L29.2353 36.6878C29.1272 36.8312 29.0731 36.903 28.9992 36.9036C28.9252 36.9042 28.8699 36.8335 28.7593 36.6919L12.5618 15.9601C12.4746 15.8484 12.431 15.7926 12.4389 15.7305C12.4469 15.6683 12.5028 15.6256 12.6147 15.5402C17.2548 11.9973 22.9211 10.052 28.7644 10.001Z" stroke="white" style="stroke:white;stroke-opacity:1;" stroke-width="2" stroke-linecap="round"/>
<path fill-rule="evenodd" clip-rule="evenodd" d="M29 14.3125C29 15.4516 28.0766 16.375 26.9375 16.375C25.7984 16.375 24.875 15.4516 24.875 14.3125C24.875 13.1734 25.7984 12.25 26.9375 12.25C28.0766 12.25 29 13.1734 29 14.3125ZM41.375 20.5C41.375 22.7782 39.5282 24.625 37.25 24.625C34.9718 24.625 33.125 22.7782 33.125 20.5C33.125 18.2218 34.9718 16.375 37.25 16.375C39.5282 16.375 41.375 18.2218 41.375 20.5ZM22.8125 28.75C25.0907 28.75 26.9375 26.9032 26.9375 24.625C26.9375 22.3468 25.0907 20.5 22.8125 20.5C20.5343 20.5 18.6875 22.3468 18.6875 24.625C18.6875 26.9032 20.5343 28.75 22.8125 28.75Z" fill="white" style="fill:white;fill-opacity:1;"/>
</svg>
